<svg xmlns="http://www.w3.org/2000/svg" width="36" height="36" id="mobile"><g transform="translate(0 -1016.362)"><rect width="36" height="36" y="1016.362" fill="#f8b84e" rx="6" ry="6"></rect><g transform="translate(-37 -214)"><rect width="17" height="30" x="-63" y="1233.362" color="#000" opacity=".15" overflow="visible" rx="1" style="isolation:auto;mix-blend-mode:normal" ry="1" transform="scale(-1 1)"></rect><rect width="17" height="30" x="-64" y="1233.362" fill="#e9eded" color="#000" overflow="visible" rx="1" ry="1" transform="scale(-1 1)" style="isolation:auto;mix-blend-mode:normal"></rect><path fill="#34485c" style="isolation:auto;mix-blend-mode:normal" d="M61.857 1236.362v22H49v-22z" color="#000" overflow="visible"></path><path d="M43 1239.362v7.03h6.297l2.404 2.97v-2.97H53v-7.03zm23 7v7.03h-6.297l-2.404 2.97v-2.97H56v-7.03z" color="#000" opacity=".15" overflow="visible" style="isolation:auto;mix-blend-mode:normal"></path><circle cx="54.857" cy="1260.862" r="1.5" opacity=".15"></circle><rect width="4" height="1" x="52.5" y="1234.362" fill-opacity=".996" opacity=".15" rx="0" ry="0"></rect><rect width="4" height="1" x="53.5" y="1234.362" fill="#3e5164" fill-opacity=".996" rx="0" ry="0"></rect><circle cx="55.857" cy="1260.862" r="1.5" fill="#34485c"></circle><path fill="#f05542" style="isolation:auto;mix-blend-mode:normal" d="M44 1239.362v7.03h6.297l2.404 2.97v-2.97H54v-7.03z" color="#000" overflow="visible"></path><path fill="none" stroke="#34485c" d="M46 1241.862h6m-6 2h3m1.286 0h.857"></path><path fill="#4bbfeb" d="M67 1246.362v7.03h-6.297l-2.404 2.97v-2.97H57v-7.03z" color="#000" overflow="visible" style="isolation:auto;mix-blend-mode:normal"></path><g opacity=".15" transform="translate(-1)"><circle cx="60.5" cy="1249.862" r=".5"></circle><circle cx="62.5" cy="1249.862" r=".5"></circle><circle cx="64.5" cy="1249.862" r=".5"></circle></g><g fill="#34485c" transform="translate(-.5)"><circle cx="60.5" cy="1249.862" r=".5"></circle><circle cx="62.5" cy="1249.862" r=".5"></circle><circle cx="64.5" cy="1249.862" r=".5"></circle></g></g></g></svg>